<svg width="317" height="152" viewBox="0 0 317 152" fill="none" xmlns="http://www.w3.org/2000/svg">
<g filter="url(#filter0_d_704_79)">
<rect x="40" y="24" width="236.006" height="72" rx="4" fill="#5429CC"/>
<path d="M106.142 45.8578C102.365 42.0803 97.3422 40 92 40C86.6578 40 81.6353 42.0803 77.8578 45.8578C74.0803 49.6353 72 54.6578 72 60C72 65.3422 74.0804 70.3646 77.8578 74.1422C81.6352 77.9198 86.6578 80 92 80C97.3422 80 102.365 77.9197 106.142 74.1422C109.92 70.3647 112 65.3422 112 60C112 54.6578 109.92 49.6354 106.142 45.8578Z" fill="#33CC95"/>
<path d="M92.5713 48V73.1429" stroke="white" stroke-width="2" stroke-linecap="round" stroke-linejoin="round"/>
<path d="M98.2853 52.5713H89.7139C88.653 52.5713 87.6356 52.9928 86.8855 53.7429C86.1353 54.493 85.7139 55.5105 85.7139 56.5713C85.7139 57.6322 86.1353 58.6496 86.8855 59.3998C87.6356 60.1499 88.653 60.5713 89.7139 60.5713H95.4282C96.489 60.5713 97.5065 60.9928 98.2566 61.7429C99.0068 62.4931 99.4282 63.5105 99.4282 64.5713C99.4282 65.6322 99.0068 66.6496 98.2566 67.3998C97.5065 68.1499 96.489 68.5713 95.4282 68.5713H85.7139" stroke="white" stroke-width="2" stroke-linecap="round" stroke-linejoin="round"/>
<path d="M128 59.0398C128 57.6958 128.264 56.5038 128.792 55.4638C129.336 54.4238 130.072 53.6238 131 53.0638C131.928 52.5038 132.96 52.2238 134.096 52.2238C134.96 52.2238 135.784 52.4158 136.568 52.7998C137.352 53.1678 137.976 53.6638 138.44 54.2878V47.9758H141.848V65.7358H138.44V63.7678C138.024 64.4238 137.44 64.9518 136.688 65.3518C135.936 65.7518 135.064 65.9518 134.072 65.9518C132.952 65.9518 131.928 65.6638 131 65.0878C130.072 64.5118 129.336 63.7038 128.792 62.6638C128.264 61.6078 128 60.3998 128 59.0398ZM138.464 59.0878C138.464 58.2718 138.304 57.5758 137.984 56.9998C137.664 56.4078 137.232 55.9598 136.688 55.6558C136.144 55.3358 135.56 55.1758 134.936 55.1758C134.312 55.1758 133.736 55.3278 133.208 55.6318C132.68 55.9358 132.248 56.3838 131.912 56.9758C131.592 57.5518 131.432 58.2398 131.432 59.0398C131.432 59.8398 131.592 60.5438 131.912 61.1518C132.248 61.7438 132.68 62.1998 133.208 62.5198C133.752 62.8398 134.328 62.9998 134.936 62.9998C135.56 62.9998 136.144 62.8478 136.688 62.5438C137.232 62.2238 137.664 61.7758 137.984 61.1998C138.304 60.6078 138.464 59.9038 138.464 59.0878Z" fill="white"/>
<path d="M149.041 55.1999V61.6319C149.041 62.0799 149.145 62.4079 149.353 62.6159C149.577 62.8079 149.945 62.9039 150.457 62.9039H152.017V65.7359H149.905C147.073 65.7359 145.657 64.3599 145.657 61.6079V55.1999H144.073V52.4399H145.657V49.1519H149.041V52.4399H152.017V55.1999H149.041Z" fill="white"/>
<path d="M176.665 52.2478C178.297 52.2478 179.609 52.7518 180.601 53.7598C181.609 54.7518 182.113 56.1438 182.113 57.9358V65.7358H178.753V58.3918C178.753 57.3518 178.489 56.5598 177.961 56.0158C177.433 55.4558 176.713 55.1758 175.801 55.1758C174.889 55.1758 174.161 55.4558 173.617 56.0158C173.089 56.5598 172.825 57.3518 172.825 58.3918V65.7358H169.465V58.3918C169.465 57.3518 169.201 56.5598 168.673 56.0158C168.145 55.4558 167.425 55.1758 166.513 55.1758C165.585 55.1758 164.849 55.4558 164.305 56.0158C163.777 56.5598 163.513 57.3518 163.513 58.3918V65.7358H160.153V52.4398H163.513V54.0478C163.945 53.4878 164.497 53.0478 165.169 52.7278C165.857 52.4078 166.609 52.2478 167.425 52.2478C168.465 52.2478 169.393 52.4718 170.209 52.9198C171.025 53.3518 171.657 53.9758 172.105 54.7918C172.537 54.0238 173.161 53.4078 173.977 52.9438C174.809 52.4798 175.705 52.2478 176.665 52.2478Z" fill="white"/>
<path d="M191.205 65.9519C189.925 65.9519 188.773 65.6719 187.749 65.1119C186.725 64.5359 185.917 63.7279 185.325 62.6879C184.749 61.6479 184.461 60.4479 184.461 59.0879C184.461 57.7279 184.757 56.5279 185.349 55.4879C185.957 54.4479 186.781 53.6479 187.821 53.0879C188.861 52.5119 190.021 52.2239 191.301 52.2239C192.581 52.2239 193.741 52.5119 194.781 53.0879C195.821 53.6479 196.637 54.4479 197.229 55.4879C197.837 56.5279 198.141 57.7279 198.141 59.0879C198.141 60.4479 197.829 61.6479 197.205 62.6879C196.597 63.7279 195.765 64.5359 194.709 65.1119C193.669 65.6719 192.501 65.9519 191.205 65.9519ZM191.205 63.0239C191.813 63.0239 192.381 62.8799 192.909 62.5919C193.453 62.2879 193.885 61.8399 194.205 61.2479C194.525 60.6559 194.685 59.9359 194.685 59.0879C194.685 57.8239 194.349 56.8559 193.677 56.1839C193.021 55.4959 192.213 55.1519 191.253 55.1519C190.293 55.1519 189.485 55.4959 188.829 56.1839C188.189 56.8559 187.869 57.8239 187.869 59.0879C187.869 60.3519 188.181 61.3279 188.805 62.0159C189.445 62.6879 190.245 63.0239 191.205 63.0239Z" fill="white"/>
<path d="M207.974 52.2478C209.558 52.2478 210.838 52.7518 211.814 53.7598C212.79 54.7518 213.278 56.1438 213.278 57.9358V65.7358H209.918V58.3918C209.918 57.3358 209.654 56.5278 209.126 55.9678C208.598 55.3918 207.878 55.1038 206.966 55.1038C206.038 55.1038 205.302 55.3918 204.758 55.9678C204.23 56.5278 203.966 57.3358 203.966 58.3918V65.7358H200.606V52.4398H203.966V54.0958C204.414 53.5198 204.982 53.0718 205.67 52.7518C206.374 52.4158 207.142 52.2478 207.974 52.2478Z" fill="white"/>
<path d="M228.833 58.7999C228.833 59.2799 228.801 59.7119 228.737 60.0959H219.017C219.097 61.0559 219.433 61.8079 220.025 62.3519C220.617 62.8959 221.345 63.1679 222.209 63.1679C223.457 63.1679 224.345 62.6319 224.873 61.5599H228.497C228.113 62.8399 227.377 63.8959 226.289 64.7279C225.201 65.5439 223.865 65.9519 222.281 65.9519C221.001 65.9519 219.849 65.6719 218.825 65.1119C217.817 64.5359 217.025 63.7279 216.449 62.6879C215.889 61.6479 215.609 60.4479 215.609 59.0879C215.609 57.7119 215.889 56.5039 216.449 55.4639C217.009 54.4239 217.793 53.6239 218.801 53.0639C219.809 52.5039 220.969 52.2239 222.281 52.2239C223.545 52.2239 224.673 52.4959 225.665 53.0399C226.673 53.5839 227.449 54.3599 227.993 55.3679C228.553 56.3599 228.833 57.5039 228.833 58.7999ZM225.353 57.8399C225.337 56.9759 225.025 56.2879 224.417 55.7759C223.809 55.2479 223.065 54.9839 222.185 54.9839C221.353 54.9839 220.649 55.2399 220.073 55.7519C219.513 56.2479 219.169 56.9439 219.041 57.8399H225.353Z" fill="white"/>
<path d="M244.006 52.4399L235.774 72.0239H232.198L235.078 65.3999L229.75 52.4399H233.518L236.95 61.7279L240.43 52.4399H244.006Z" fill="white"/>
</g>
<defs>
<filter id="filter0_d_704_79" x="0" y="0" width="316.006" height="152" filterUnits="userSpaceOnUse" color-interpolation-filters="sRGB">
<feFlood flood-opacity="0" result="BackgroundImageFix"/>
<feColorMatrix in="SourceAlpha" type="matrix" values="0 0 0 0 0 0 0 0 0 0 0 0 0 0 0 0 0 0 127 0" result="hardAlpha"/>
<feOffset dy="16"/>
<feGaussianBlur stdDeviation="20"/>
<feComposite in2="hardAlpha" operator="out"/>
<feColorMatrix type="matrix" values="0 0 0 0 0.423529 0 0 0 0 0.239216 0 0 0 0 0.94902 0 0 0 0.2 0"/>
<feBlend mode="normal" in2="BackgroundImageFix" result="effect1_dropShadow_704_79"/>
<feBlend mode="normal" in="SourceGraphic" in2="effect1_dropShadow_704_79" result="shape"/>
</filter>
</defs>
</svg>
